<?xml version="1.0" encoding="UTF-8" standalone="no"?>
<!-- Created with Inkscape (http://www.inkscape.org/) -->

<svg
   xmlns:dc="http://purl.org/dc/elements/1.1/"
   xmlns:cc="http://creativecommons.org/ns#"
   xmlns:rdf="http://www.w3.org/1999/02/22-rdf-syntax-ns#"
   xmlns:svg="http://www.w3.org/2000/svg"
   xmlns="http://www.w3.org/2000/svg"
   xmlns:sodipodi="http://sodipodi.sourceforge.net/DTD/sodipodi-0.dtd"
   xmlns:inkscape="http://www.inkscape.org/namespaces/inkscape"
   width="209.39882mm"
   height="111.88095mm"
   viewBox="0 0 209.39882 111.88095"
   version="1.1"
   id="svg84"
   inkscape:version="0.92.1 15371"
   sodipodi:docname="gameover.svg"
   inkscape:export-filename="/home/greenman/projects/codeguild/Whack A Mole/gameover.png"
   inkscape:export-xdpi="34.208755"
   inkscape:export-ydpi="34.208755">
  <defs
     id="defs78" />
  <sodipodi:namedview
     id="base"
     pagecolor="#ffffff"
     bordercolor="#666666"
     borderopacity="1.0"
     inkscape:pageopacity="0.0"
     inkscape:pageshadow="2"
     inkscape:zoom="0.99660046"
     inkscape:cx="100.93888"
     inkscape:cy="321.065"
     inkscape:document-units="mm"
     inkscape:current-layer="layer1"
     showgrid="false"
     inkscape:window-width="1855"
     inkscape:window-height="1056"
     inkscape:window-x="65"
     inkscape:window-y="24"
     inkscape:window-maximized="1" />
  <metadata
     id="metadata81">
    <rdf:RDF>
      <cc:Work
         rdf:about="">
        <dc:format>image/svg+xml</dc:format>
        <dc:type
           rdf:resource="http://purl.org/dc/dcmitype/StillImage" />
        <dc:title></dc:title>
      </cc:Work>
    </rdf:RDF>
  </metadata>
  <g
     inkscape:label="Layer 1"
     inkscape:groupmode="layer"
     id="layer1"
     transform="translate(-0.75595242,-70.970238)">
    <g
       aria-label="Game Over"
       transform="matrix(0.26458333,0,0,0.26458333,0.75595242,70.970238)"
       style="font-style:normal;font-weight:normal;font-size:133.33332825px;line-height:1.25;font-family:sans-serif;letter-spacing:0px;word-spacing:0px;fill:#b00000;fill-opacity:1;stroke:none"
       id="flowRoot88">
      <path
         d="M 75.967445,132.00195 V 105.89518 H 54.483071 V 95.087888 h 34.505207 v 41.731772 c -5.078125,3.60243 -10.671055,6.35668 -16.796875,8.20312 -3.056914,0.92141 -6.307264,1.62429 -9.617755,2.08717 -1.854021,0.25923 -4.171985,23.25355 -6.431948,43.42957 -1.775369,15.84976 9.98123,34.84022 -4.610928,34.20043 -11.767237,-0.51592 -3.127124,-18.3881 -4.36646,-34.24875 -1.580308,-20.22433 -3.119364,-43.28967 -5.068279,-43.5942 -3.477326,-0.54335 -6.840392,-1.35338 -9.813483,-2.46015 -5.94618,-2.21354 -11.067707,-5.53386 -15.364582,-9.96094 C 8.3676211,125.57834 4.0924476,113.20854 4.0924476,97.366534 c 0,-15.885416 4.2751735,-28.255207 12.8255204,-37.109374 8.593749,-8.897569 20.48611,-13.346353 35.677082,-13.346353 6.336805,0 12.34809,0.78125 18.033853,2.343749 5.729167,1.5625 11.002604,3.862847 15.820312,6.901042 l -0.376279,9.675324 -1.385568,11.021305 c 0,0 1.203377,3.305068 -0.495828,3.084025 -2.13947,-0.278315 -0.834613,-1.946759 -1.139453,-2.958675 -1.104504,-3.666394 -0.138671,-8.186548 -2.479897,-11.21657 -2.201565,-2.849274 -6.300022,-3.654007 -9.617766,-4.917909 -5.468749,-2.083333 -11.219617,-3.125 -17.252603,-3.125 -11.892361,0 -20.833333,3.320312 -26.822916,9.960937 -5.94618,6.640625 -8.91927,16.536458 -8.91927,29.687499 0,13.107636 2.97309,22.981766 8.91927,29.622396 5.989583,6.64063 14.930555,9.96094 26.822916,9.96094 4.644097,0 8.789062,-0.39063 12.434895,-1.17188 3.645833,-0.82465 6.922743,-2.08333 9.830729,-3.77604 z"
         style="font-style:normal;font-variant:normal;font-weight:normal;font-stretch:normal;font-size:133.33332825px;font-family:'DejaVu Sans';-inkscape-font-specification:'DejaVu Sans';fill:#b00000;fill-opacity:1"
         id="path4588"
         inkscape:connector-curvature="0"
         sodipodi:nodetypes="ccccccssssssscscsccccsaasscscscc" />
      <path
         d="m 145.69401,109.21549 c -9.67882,0 -16.38455,1.10677 -20.11719,3.32031 -3.73264,2.21355 -5.59896,5.98959 -5.59896,11.32813 0,4.25347 1.38889,7.63889 4.16667,10.15625 2.82118,2.47396 6.64062,3.71094 11.45833,3.71094 6.64063,0 11.95747,-2.34375 15.95052,-7.03125 4.03646,-4.73091 6.05469,-11.00261 6.05469,-18.81511 v -2.66927 z m 23.89322,-4.94791 c 0,0 1.34263,27.79952 0,41.60156 -0.83908,8.62557 -5.01081,25.51143 -5.01081,25.51143 0,0 3.09694,6.49205 -1.27126,6.4723 -4.36819,-0.0197 -1.19602,-6.71452 -1.19602,-6.71452 0,0 -3.74797,-16.74677 -4.50107,-25.26921 -0.32474,-3.67492 0,-11.06771 0,-11.06771 -2.73437,4.42708 -6.14149,7.70399 -10.22136,9.83073 -2.7551,1.40686 -5.92585,2.3387 -9.51224,2.79552 -1.27242,0.16207 -1.86344,24.8513 -3.23819,37.40192 -0.49712,4.53837 2.50491,9.38153 -1.33662,9.50864 -3.00685,0.0995 -0.68338,-5.12643 -1.67509,-9.72564 -2.77478,-12.86843 -3.47911,-37.06895 -4.69891,-37.27345 -4.94711,-0.82938 -9.06927,-2.74289 -12.35144,-5.83199 -4.38368,-4.21007 -6.57552,-9.83073 -6.57552,-16.86198 0,-8.20313 2.73437,-14.38802 8.20312,-18.55469 5.51215,-4.16667 13.71528,-6.249998 24.60937,-6.249998 h 16.79688 v -1.171875 c 0,-5.512153 -1.82292,-9.765625 -5.46875,-12.760416 -3.60243,-3.038195 -8.68056,-4.557292 -15.23438,-4.557292 -4.16667,0 -8.22482,0.499132 -12.17447,1.497396 -1.99375,0.503915 -3.94879,1.135017 -5.86512,1.893301 -1.15373,0.456527 -1.82104,4.265902 -2.58174,7.369416 -0.47883,1.953529 1.33948,4.350491 -1.27083,4.341906 -2.61031,-0.0086 -0.76314,-4.126981 -0.76314,-4.126981 l -0.9124,-10.12688 v -5.926282 c 4.38368,-1.692709 8.63715,-2.951389 12.76041,-3.776042 4.12327,-0.868055 8.13802,-1.302083 12.04427,-1.302083 10.54687,0 18.42448,2.734375 23.63281,8.203124 5.20833,5.46875 7.8125,13.758682 7.8125,24.869796 z"
         style="font-style:normal;font-variant:normal;font-weight:normal;font-stretch:normal;font-size:133.33332825px;font-family:'DejaVu Sans';-inkscape-font-specification:'DejaVu Sans';fill:#b00000;fill-opacity:1"
         id="path4590"
         inkscape:connector-curvature="0"
         sodipodi:nodetypes="scscscscssaczcaccssssscscscscsssszccccsss" />
      <path
         d="m 251.09765,86.949868 c 2.99479,-5.381945 6.57552,-9.353299 10.74219,-11.914063 4.16667,-2.560763 9.07118,-3.841145 14.71354,-3.841145 7.59549,0 13.45486,2.669271 17.57813,8.007812 4.12326,5.295139 6.18489,12.847221 6.18489,22.656248 0,0 0.8639,29.36574 0,44.01042 -0.31616,5.35941 -1.89364,15.99449 -1.89364,15.99449 0,0 2.73159,5.53243 -0.6605,5.57885 -3.39209,0.0464 -0.94891,-5.62799 -0.94891,-5.62799 0,0 -0.57922,-11.33634 -2.68846,-15.94535 -0.81183,-1.77398 -5.85276,0 -5.85276,0 v -43.61979 c 0,-6.987849 -1.23698,-12.174482 -3.71094,-15.559899 -2.47395,-3.385417 -6.24999,-5.078125 -11.32812,-5.078125 -6.2066,0 -11.11111,2.061632 -14.71354,6.184896 -3.60243,4.123263 -5.40365,9.743923 -5.40365,16.861978 0,0 2.67968,27.73786 0,41.21094 -0.73756,3.70835 -3.22617,6.86661 -4.34033,10.47971 -0.81107,2.6302 2.5359,7.86755 -1.68555,8.0834 -4.96541,0.25388 -0.86126,-5.42383 -1.66545,-8.03986 -1.11541,-3.62844 -3.61327,-6.80001 -4.35294,-10.52325 -2.83317,-14.26123 0,-43.61979 0,-43.61979 0,-7.031252 -1.23698,-12.217885 -3.71094,-15.559899 -2.47395,-3.385417 -6.2934,-5.078125 -11.45833,-5.078125 -6.11979,0 -10.9809,2.083333 -14.58333,6.25 -3.60243,4.123263 -5.40365,9.722221 -5.40365,16.796874 v 41.21094 c 0,0 -1.76528,2.0277 -2.2229,3.26109 -3.27043,8.81472 -3.15952,28.02807 -3.15952,28.02807 0,0 2.69629,6.70999 -0.72869,6.46418 -3.42499,-0.2458 -0.76038,-6.47472 -0.76038,-6.47472 0,0 0.10292,-19.76368 -3.3787,-28.77009 -0.37067,-0.95887 -1.79408,-2.50853 -1.79408,-2.50853 V 72.952472 h 12.04427 v 11.328125 c 2.73438,-4.470486 6.01129,-7.769097 9.83073,-9.895833 3.81945,-2.126736 8.35504,-3.190104 13.60677,-3.190104 5.29514,0 9.78733,1.345486 13.47656,4.036458 3.73264,2.690972 6.48872,6.597222 8.26823,11.71875 z"
         style="font-style:normal;font-variant:normal;font-weight:normal;font-stretch:normal;font-size:133.33332825px;font-family:'DejaVu Sans';-inkscape-font-specification:'DejaVu Sans';fill:#b00000;fill-opacity:1"
         id="path4592"
         inkscape:connector-curvature="0"
         sodipodi:nodetypes="csscssczcscscsssassasscscscaczcaccccsscc" />
      <path
         d="m 386.64452,106.41601 v 5.85938 H 331.5664 c 0.52083,8.24653 2.99479,14.53993 7.42187,18.88021 4.47049,4.29687 10.67708,6.44531 18.61979,6.44531 4.60069,0 9.04948,-0.56424 13.34635,-1.69271 4.34028,-1.12847 8.63716,-2.82118 12.89063,-5.07813 v 11.32813 c -0.3585,0.15209 -1.08659,7.55505 -1.66784,12.05221 -0.249,1.92659 1.71085,2.90868 -0.62557,3.38134 -1.90939,0.38628 -0.50317,-1.38025 -0.68668,-3.42674 -0.37275,-4.15684 -0.63259,-10.58273 -1.2324,-10.37101 -2.95165,1.04188 -5.95288,1.88551 -9.00366,2.53087 -1.11485,0.23583 -2.23368,0.44254 -3.35647,0.62013 -3.42325,0.54144 -11.542,7.86241 -11.25848,11.34798 0.81437,10.01186 0.99088,19.34923 0.70844,25.50766 -0.21872,4.76911 2.92109,9.31352 -1.39876,9.30641 -3.46637,-0.006 -1.12596,-4.91552 -1.91611,-9.0772 -2.11475,-11.13819 -4.88714,-31.27621 -4.88714,-31.27621 -4.24489,-2.0348 -7.12496,-7.21165 -10.87426,-9.09218 -3.12868,-1.56924 -5.9365,-3.58943 -8.42346,-6.06055 -6.77083,-6.77083 -10.15625,-15.92882 -10.15625,-27.47396 0,-11.935763 3.2118,-21.397569 9.63541,-28.385416 6.46701,-7.031249 15.16927,-10.546874 26.10677,-10.546874 9.80903,0 17.55642,3.168403 23.24219,9.505208 5.72917,6.293403 8.59375,14.86545 8.59375,25.716142 z m -11.97917,-3.51562 c -0.0868,-6.553821 -1.93142,-11.783856 -5.53385,-15.690106 -3.55903,-3.90625 -8.28993,-5.859375 -14.19271,-5.859375 -6.68403,0 -12.04427,1.888021 -16.08073,5.664063 -3.99305,3.776041 -6.2934,9.092881 -6.90104,15.950518 z"
         style="font-style:normal;font-variant:normal;font-weight:normal;font-stretch:normal;font-size:133.33332825px;font-family:'DejaVu Sans';-inkscape-font-specification:'DejaVu Sans';fill:#b00000;fill-opacity:1"
         id="path4594"
         inkscape:connector-curvature="0"
         sodipodi:nodetypes="scccscccsssscssssssscscscsccsccc" />
      <path
         d="m 488.72784,57.587889 c -9.54861,0 -17.14409,3.559028 -22.78646,10.677083 -5.59895,7.118055 -8.39843,16.818576 -8.39843,29.101562 0,12.239586 2.79948,21.918406 8.39843,29.036456 5.64237,7.11805 13.23785,10.67708 22.78646,10.67708 9.54861,0 17.1007,-3.55903 22.65625,-10.67708 5.59896,-7.11805 8.39844,-16.79687 8.39844,-29.036456 0,-12.282986 -2.79948,-21.983507 -8.39844,-29.101562 -5.55555,-7.118055 -13.10764,-10.677083 -22.65625,-10.677083 z m 0,-10.677082 c 13.62847,0 24.52257,4.578993 32.68229,13.736978 8.15973,9.114583 12.23959,21.354166 12.23959,36.718749 0,15.321176 -4.07986,27.560756 -12.23959,36.718746 -5.16214,5.76623 -11.41867,9.70849 -18.76957,11.82679 -2.82668,0.81456 -3.0947,23.64486 -6.27131,38.97557 -1.33301,6.43326 1.35885,15.84335 -2.94696,20.22423 -0.52912,0.53834 -2.78904,5.86816 -3.44872,7.41181 -0.28757,0.67292 -0.52095,4.98054 -0.81196,8.53257 -0.21251,2.59388 0.89134,4.79327 -0.77331,4.86315 -1.29215,0.0542 -0.15855,-2.22883 -0.39756,-4.88071 -0.31871,-3.53618 -0.78049,-7.82459 -1.20021,-8.58358 -0.91067,-1.64676 -0.50383,-4.64986 -0.85504,-5.34609 -2.47977,-4.91582 2.0523,-16.65346 0.86572,-23.29599 -2.72195,-15.23752 -8.07101,-36.88342 -10.57631,-37.50977 -8.01164,-2.00302 -14.78149,-6.07568 -20.30956,-12.21798 -8.15972,-9.11458 -12.23958,-21.35416 -12.23958,-36.718746 0,-15.364583 4.07986,-27.604166 12.23958,-36.718749 8.20313,-9.157985 19.14063,-13.736978 32.8125,-13.736978 z"
         style="font-style:normal;font-variant:normal;font-weight:normal;font-stretch:normal;font-size:133.33332825px;font-family:'DejaVu Sans';-inkscape-font-specification:'DejaVu Sans';fill:#b00000;fill-opacity:1"
         id="path4596"
         inkscape:connector-curvature="0"
         sodipodi:nodetypes="scscscscsscscssssssssssscscs" />
      <path
         d="m 545.10807,72.952472 h 12.69531 l 22.78646,61.197918 22.78646,-61.197918 h 12.69531 l -27.34375,72.916668 -3.38575,21.17468 c 0,0 5.87204,12.86659 -2.10938,13.19215 -7.98141,0.32556 -4.04924,-12.90795 -4.04924,-12.90795 l -6.73167,-21.45888 z"
         style="font-style:normal;font-variant:normal;font-weight:normal;font-stretch:normal;font-size:133.33332825px;font-family:'DejaVu Sans';-inkscape-font-specification:'DejaVu Sans';fill:#b00000;fill-opacity:1"
         id="path4598"
         inkscape:connector-curvature="0"
         sodipodi:nodetypes="ccccccczccc" />
      <path
         d="m 694.97786,106.41601 v 5.85938 h -55.07812 c 0.52083,8.24653 2.99479,14.53993 7.42187,18.88021 4.47049,4.29687 10.67708,6.44531 18.61979,6.44531 4.6007,0 9.04949,-0.56424 13.34636,-1.69271 4.34027,-1.12847 8.63715,-2.82118 12.89062,-5.07813 v 11.32813 c 0,1.49807 -2.76936,16.50591 -4.17081,25.82024 -0.56325,3.74346 1.72492,8.68912 -1.69516,8.48594 -4.33841,-0.25772 -1.53585,-4.43273 -2.30872,-8.35878 -1.66517,-8.45875 1.02492,-17.45242 -5.04145,-21.78073 -3.74768,-2.67394 -9.09289,1.43229 -13.73698,1.43229 -5.13427,0 -9.79922,-0.65958 -13.99486,-1.97873 -2.03572,-0.64005 -4.05188,34.93467 -5.91828,54.64502 -0.74044,7.81954 2.33608,12.70293 -2.14249,12.7162 -4.47857,0.0133 -1.08792,-5.71564 -1.60258,-13.44876 -1.42248,-21.37367 -2.71267,-60.79986 -4.01106,-62.08998 -6.77083,-6.77083 -10.15625,-15.92882 -10.15625,-27.47396 0,-11.935763 3.21181,-21.397569 9.63542,-28.385416 6.46701,-7.031249 15.16927,-10.546874 26.10677,-10.546874 9.80903,0 17.55642,3.168403 23.24218,9.505208 5.72917,6.293403 8.59375,14.86545 8.59375,25.716142 z m -11.97916,-3.51562 c -0.0868,-6.553821 -1.93143,-11.783856 -5.53386,-15.690106 -3.55903,-3.90625 -8.28993,-5.859375 -14.19271,-5.859375 -6.68403,0 -12.04427,1.888021 -16.08072,5.664063 -3.99306,3.776041 -6.29341,9.092881 -6.90105,15.950518 z"
         style="font-style:normal;font-variant:normal;font-weight:normal;font-stretch:normal;font-size:133.33332825px;font-family:'DejaVu Sans';-inkscape-font-specification:'DejaVu Sans';fill:#b00000;fill-opacity:1"
         id="path4600"
         inkscape:connector-curvature="0"
         sodipodi:nodetypes="scccsccsssssssszscscscsccsccc" />
      <path
         d="m 754.87988,105.90372 c -1.40452,-0.84578 -0.0787,-3.54629 -0.61138,-6.137791 -1.30192,-6.333794 -0.66403,-17.061844 -1.80366,-17.308249 -1.5625,-0.390625 -3.29861,-0.585937 -5.20833,-0.585937 -6.77083,0 -11.97917,2.213541 -15.625,6.640624 -3.60243,4.383681 -5.40365,10.698785 -5.40365,18.945313 v 38.41146 l -5.65343,53.89391 c 0,0 2.75665,12.00842 -1.25406,11.95495 -4.01071,-0.0535 -0.93684,-12.00938 -0.93684,-12.00938 l -4.19994,-53.83948 V 72.952472 h 12.04427 v 11.328125 c 2.51737,-4.427083 5.79428,-7.703993 9.83073,-9.830729 4.03646,-2.170139 8.94097,-3.255208 14.71354,-3.255208 0.82465,0 1.73611,0.0651 2.73438,0.195312 0.99826,0.08681 2.59377,-0.39289 3.32031,0.455729 6.04723,7.063313 -0.51019,27.890392 -0.51019,27.890392 0,0 1.94338,8.203077 -1.43675,6.167627 z"
         style="font-style:normal;font-variant:normal;font-weight:normal;font-stretch:normal;font-size:133.33332825px;font-family:'DejaVu Sans';-inkscape-font-specification:'DejaVu Sans';fill:#b00000;fill-opacity:1"
         id="path4602"
         inkscape:connector-curvature="0"
         sodipodi:nodetypes="sscscscczccccccscacs" />
    </g>
  </g>
</svg>
